<svg width="1620" height="2500" viewBox="0 0 1620 2500" fill="none" xmlns="http://www.w3.org/2000/svg">
<path d="M1316.72 78.1444H300.686C161.739 78.1444 49.1004 190.783 49.1004 329.73V2169.72C49.1004 2308.67 161.739 2421.31 300.686 2421.31H1316.72C1455.67 2421.31 1568.31 2308.67 1568.31 2169.72V329.73C1568.31 190.783 1455.67 78.1444 1316.72 78.1444Z" fill="#334D3D"/>
<path d="M1446.44 2243.43H1440.79V2279.19H1446.44V2264.98H1475.37V2257.72H1446.44V2243.43ZM1475.33 2191.9H1443.93C1442.95 2191.9 1442.2 2192.17 1441.65 2192.64C1441.1 2193.19 1440.83 2193.94 1440.83 2194.92V2202.89L1468.22 2215.52L1440.83 2228.16V2236.05C1440.83 2236.99 1441.1 2237.78 1441.65 2238.33C1442.2 2238.88 1442.95 2239.15 1443.93 2239.15H1475.33V2232.17H1446.48L1475.33 2219.06V2212.11L1446.44 2198.92H1475.33V2191.94V2191.9Z" fill="white"/>
<path fill-rule="evenodd" clip-rule="evenodd" d="M914.579 1278.53H1146.03C1331.72 1278.53 1482.2 1427.84 1482.2 1612.07H1146.03C1331.72 1612.07 1482.2 1761.37 1482.2 1945.61C1482.2 2129.84 1331.72 2279.15 1146.03 2279.15H473.735C288.048 2279.15 137.568 2129.84 137.568 1945.61V1612.07C137.568 1427.84 288.048 1278.53 473.735 1278.53H667.036C667.193 1279.95 667.31 1281.4 667.389 1282.85C667.507 1284.42 667.624 1285.99 667.781 1287.56C667.938 1288.82 668.252 1290.07 668.566 1291.33C668.684 1291.88 668.841 1292.43 668.959 1292.98C669.273 1294.31 669.587 1295.65 669.862 1296.98C670.411 1299.38 670.961 1301.77 671.471 1304.2C671.667 1305.03 671.549 1305.97 671.432 1306.79C670.804 1310.48 671.51 1313.98 672.962 1317.35C674.493 1320.84 675.317 1324.38 674.375 1328.22C673.512 1331.76 673.551 1335.37 674.179 1338.98C674.454 1340.67 674.218 1342.47 673.904 1344.2C673.433 1346.87 672.923 1349.54 672.413 1352.2C671.863 1355.03 671.314 1357.86 670.843 1360.68C669.783 1367 669.822 1373.36 671.432 1379.56C671.981 1381.72 673.159 1383.8 674.454 1385.68C676.102 1388.12 677.633 1390.43 676.573 1393.57C676.377 1394.16 676.495 1394.87 676.573 1395.54C676.573 1395.65 676.573 1395.73 676.612 1395.85L677.672 1403.54C677.829 1404.8 678.025 1406.01 678.182 1407.23C678.85 1411.94 676.338 1415.47 673.865 1419.01L673.512 1419.48L672.57 1420.77C671.706 1421.91 670.882 1423.09 670.176 1424.3C669.665 1425.21 669.43 1426.46 669.587 1427.48C669.901 1429.88 669.508 1432.08 668.763 1434.27C667.938 1436.79 667.664 1439.34 668.213 1442.05C668.998 1446.01 667.938 1449.74 665.466 1452.88C663.503 1455.39 662.444 1458.18 662.012 1461.28C661.345 1465.99 659.853 1470.46 658.322 1474.94C657.93 1476.07 657.577 1477.17 657.184 1478.31C656.242 1481.22 655.34 1484.16 654.476 1487.06C654.201 1487.93 653.966 1488.79 653.691 1489.61C652.985 1491.89 652.278 1494.21 651.689 1496.52C650.59 1501 649.609 1505.47 648.667 1509.99C648.078 1512.89 647.293 1515.64 645.645 1518.23C644.468 1520.11 643.604 1522.19 642.741 1524.27C642.348 1525.25 641.956 1526.19 641.524 1527.14C640.935 1528.43 640.346 1529.69 639.679 1530.94C638.894 1532.4 638.07 1533.77 637.207 1535.18C637.089 1535.38 636.971 1535.58 636.853 1535.73C636.461 1536.4 636.068 1537.11 635.48 1537.54C633.753 1538.79 633.085 1540.64 632.497 1542.52C629.592 1551.82 626.766 1561.17 623.94 1570.51C621.978 1576.9 620.055 1583.3 618.171 1589.74C617.739 1591.15 616.993 1592.13 616.012 1593.23C613.814 1595.63 611.812 1598.3 610.086 1601.04C606.082 1607.52 602.275 1614.07 598.429 1620.63L597.801 1621.69C597.173 1622.75 596.623 1623.85 596.074 1624.95C595.406 1626.28 594.739 1627.61 593.954 1628.91C593.405 1629.77 592.737 1630.48 592.031 1631.22C591.442 1631.85 590.854 1632.48 590.383 1633.19C583.828 1642.57 578.019 1652.38 573.231 1662.74V1662.82C572.799 1663.68 572.289 1664.74 572.485 1665.53C572.956 1667.49 572.21 1668.94 571.425 1670.51C571.229 1670.87 571.033 1671.26 570.876 1671.61C568.783 1676.21 566.897 1680.9 565.224 1685.66C561.652 1695.67 558.12 1705.72 554.744 1715.81C554.116 1717.77 553.763 1719.81 553.41 1721.89C553.214 1723.07 553.018 1724.24 552.743 1725.42C552.586 1726.21 552.233 1727.11 551.683 1727.66C546.934 1732.09 545.678 1737.94 545.011 1744.03C544.932 1744.69 545.168 1745.36 545.364 1746.03C545.403 1746.19 545.482 1746.38 545.521 1746.54C545.6 1746.81 545.756 1747.13 545.913 1747.4C546.149 1747.83 546.345 1748.27 546.345 1748.7C546.345 1752.46 548.779 1753.49 551.919 1753.8C552.233 1753.8 552.507 1753.88 552.821 1753.92C553.175 1754 553.528 1754.03 553.881 1754.07C555.529 1754.15 557.178 1754.19 558.826 1754.27C563.301 1754.47 567.775 1754.66 572.289 1754.74C580.099 1754.94 587.871 1755.06 595.681 1755.21L609.065 1755.45C614.207 1755.57 619.348 1755.64 624.49 1755.76C629.631 1755.88 634.773 1755.96 639.915 1756.08C646.038 1756.19 652.2 1756.31 658.322 1756.39C664.445 1756.51 670.607 1756.59 676.73 1756.7H677.083C678.261 1756.7 679.478 1756.7 680.184 1758H686.778L687.995 1757.76C688.858 1757.57 689.761 1757.37 690.624 1757.37C703.419 1757.33 716.215 1757.33 729.01 1757.37C729.873 1757.37 730.776 1757.57 731.639 1757.76L732.856 1758H734.151C736.693 1757.04 739.499 1757.04 742.04 1758H944.722L945.821 1757.76C946.606 1757.57 947.391 1757.37 948.215 1757.37C955.319 1757.33 962.423 1757.33 969.527 1757.37C970.312 1757.37 971.097 1757.57 971.922 1757.76C972.275 1757.84 972.667 1757.96 973.02 1758H984.874C987.268 1756.15 991.036 1756.15 993.43 1758H1004.62C1005.4 1756.63 1006.66 1756.66 1007.91 1756.7H1013.92C1017.45 1756.7 1021.02 1756.78 1024.55 1756.63C1028.4 1756.47 1032.25 1756.08 1036.09 1755.68C1037.15 1755.57 1038.21 1755.45 1039.27 1755.37C1040.14 1755.29 1041.12 1755.13 1041.78 1754.66C1041.98 1754.51 1042.18 1754.39 1042.41 1754.23C1043.51 1753.49 1044.69 1752.66 1045 1751.6C1047.04 1744.62 1048.1 1737.47 1043.24 1731.19C1040.96 1728.25 1039.82 1725.11 1038.64 1721.69L1038.53 1721.38C1035.43 1712.59 1032.05 1703.88 1028.68 1695.16C1027.73 1692.73 1026.79 1690.29 1025.85 1687.82C1024.99 1685.58 1024.04 1683.39 1023.14 1681.19L1021.49 1677.19C1020.9 1675.69 1019.96 1674.44 1019.02 1673.18C1018.39 1672.32 1017.76 1671.49 1017.25 1670.63C1016.63 1669.57 1016.51 1668.28 1016.35 1666.98C1016.19 1665.69 1016.08 1664.39 1015.49 1663.17C1010.52 1652.78 1004.91 1642.69 998.689 1632.99C998.454 1632.6 998.179 1632.21 997.943 1631.85C997.002 1630.4 996.06 1628.99 995.314 1627.42C990.015 1616.43 984.246 1605.71 977.652 1595.47C977.573 1595.35 977.534 1595.23 977.456 1595.12C977.22 1594.72 977.024 1594.33 976.671 1594.13C974.276 1592.68 973.57 1590.37 972.863 1587.97C972.746 1587.62 972.667 1587.31 972.549 1586.95C968.742 1574.82 964.817 1562.7 960.893 1550.61C959.872 1547.51 958.734 1544.41 957.478 1541.38C957.085 1540.4 956.379 1539.46 955.594 1538.75C950.452 1534.16 946.292 1528.75 942.092 1523.33C940.797 1521.64 939.463 1519.92 938.128 1518.27C937.971 1518.11 937.853 1517.91 937.736 1517.72C937.422 1517.29 937.068 1516.81 936.637 1516.54C931.927 1513.48 929.415 1508.73 926.981 1504.06C926.707 1503.51 926.432 1503 926.157 1502.49C922.429 1495.54 919.171 1488.36 915.952 1481.18C915.324 1479.76 914.657 1478.35 914.029 1476.94C913.362 1475.52 913.205 1473.68 913.441 1472.15C914.069 1468.03 914.304 1463.87 914.579 1459.71C914.618 1458.96 914.657 1458.18 914.736 1457.43C915.01 1453.11 914.775 1448.99 914.186 1444.71C913.872 1442.4 914.226 1440 914.618 1437.61C914.736 1436.94 914.814 1436.28 914.932 1435.61C915.482 1431.64 915.638 1427.76 913.401 1424.15C912.813 1423.21 912.734 1421.95 912.695 1420.81V1420.65C912.656 1419.71 912.656 1418.77 912.695 1417.83C912.695 1416.69 912.695 1415.51 912.616 1414.37C912.499 1412.88 912.263 1411.2 911.517 1409.98C909.359 1406.56 908.888 1402.8 908.77 1398.95C908.652 1395.22 907.592 1391.81 906.533 1388.31L906.376 1387.76C904.854 1382.84 903.505 1377.87 902.333 1372.85C902.019 1371.48 902.255 1369.91 902.49 1368.41V1368.26C902.843 1366.1 903.354 1363.94 903.903 1361.82C904.61 1359.07 905.002 1356.4 902.49 1354.25C902.098 1353.93 901.744 1353.26 901.784 1352.79C901.901 1351.97 901.941 1351.14 901.941 1350.28C902.019 1348.16 902.098 1346.04 903.471 1344.24C904.963 1342.31 905.355 1340.12 905.434 1337.76C905.512 1336.03 905.669 1334.35 905.787 1332.62C905.905 1331.36 906.023 1330.15 906.101 1328.89C906.14 1328.11 906.14 1327.32 906.14 1326.54C906.14 1325.59 906.14 1324.61 906.219 1323.67C906.376 1322.02 906.533 1320.33 907.082 1318.88C908.024 1316.41 908.574 1313.9 908.77 1311.23C909.005 1308.17 909.751 1305.18 910.497 1302.2C910.811 1300.98 911.635 1299.81 912.499 1298.83C915.913 1294.9 916.58 1290.51 915.089 1285.64C915.05 1285.44 914.971 1285.28 914.932 1285.09C914.81 1284.63 914.653 1284.19 914.461 1283.75C913.558 1281.87 913.755 1280.1 914.618 1278.42L914.579 1278.53ZM934.713 1221.39H1482.24V887.85H1146.07C1331.76 887.85 1482.24 738.547 1482.24 554.313C1482.24 370.078 1331.76 220.775 1146.07 220.775H473.735C288.048 220.775 137.568 370.078 137.568 554.313H473.735C288.048 554.313 137.568 703.616 137.568 887.85V1221.39H665.113C665.113 1219.94 665.112 1218.52 665.034 1217.07C664.877 1213.77 663.857 1210.36 662.64 1207.26C660.717 1202.47 660.952 1197.84 662.522 1193.13C662.797 1192.34 663.307 1191.44 663.974 1191.05C665.976 1189.83 666.094 1188.07 665.662 1186.18C664.367 1180.37 662.836 1174.68 659.107 1169.81C658.087 1168.48 657.263 1167.03 656.438 1165.54C656.203 1165.1 655.928 1164.63 655.693 1164.2C655.34 1163.61 655.026 1163.02 654.672 1162.47C652.278 1158.31 649.884 1154.15 646.744 1150.46L646.587 1150.27C643.447 1146.58 640.268 1142.89 639.679 1137.71C639.561 1136.88 639.09 1136.1 638.62 1135.28C638.462 1135 638.266 1134.73 638.148 1134.45C636.225 1130.84 634.145 1127.46 630.338 1125.38C628.336 1124.25 627.277 1122.21 628.101 1119.73C628.846 1117.46 628.376 1115.38 627.277 1113.41C626.452 1111.96 625.628 1110.51 624.765 1109.06C623.744 1107.29 622.684 1105.52 621.703 1103.72C621.114 1102.58 620.604 1101.33 620.486 1100.07C620.408 1098.85 620.526 1097.6 620.683 1096.38L620.8 1095.16C621.193 1091.2 621.507 1087.31 619.073 1083.74C618.249 1082.49 617.7 1080.99 617.307 1079.5C615.698 1073.03 614.089 1066.59 612.519 1060.11C611.852 1057.44 611.224 1054.74 610.556 1052.07C610.439 1051.6 610.321 1051.13 610.203 1050.69C609.889 1049.36 609.575 1047.99 609.143 1046.69C608.79 1045.51 608.398 1044.34 607.966 1043.2C607.377 1041.47 606.749 1039.7 606.318 1037.94C606.278 1037.74 606.2 1037.58 606.161 1037.39C605.179 1033.66 604.159 1029.93 604.944 1025.97C605.062 1025.34 604.944 1024.63 604.787 1023.93C604.787 1023.73 604.708 1023.57 604.669 1023.38C604.394 1021.89 604.12 1020.35 603.806 1018.86L603.217 1016.23C602.275 1012.07 601.333 1007.95 600.312 1003.83C599.763 1001.63 599.174 999.474 598.586 997.315C597.997 995.157 597.408 992.998 596.859 990.8C596.584 989.662 596.505 988.327 596.78 987.228C597.526 984.128 597.016 981.145 596.427 978.123C596.231 977.063 596.152 975.964 596.113 974.865C596.113 974.198 596.034 973.531 595.995 972.903C595.877 971.607 595.799 970.312 595.681 969.017C595.446 965.092 595.171 961.167 593.719 957.399C592.934 955.358 592.934 953.2 593.169 950.923C593.365 949.314 593.169 947.665 592.973 945.978C592.894 945.232 592.816 944.486 592.777 943.741L592.659 941.896C592.58 940.679 592.463 939.462 592.423 938.246C592.423 937.892 592.423 937.539 592.502 937.186C592.541 936.676 592.62 936.126 592.502 935.655C592.227 934.556 591.952 933.418 591.717 932.319C590.932 928.944 590.147 925.568 588.891 922.35C587.046 917.679 586.929 913.009 588.067 908.495C589.244 903.785 588.42 899.9 585.908 896.014C584.534 893.934 583.435 891.618 582.454 889.302C581.159 886.202 579.982 882.983 578.883 879.804C576.606 872.935 574.369 866.067 572.171 859.198L571.465 856.961C570.797 854.842 570.13 852.761 569.463 850.642C568.403 847.227 567.304 843.813 566.166 840.398C565.852 839.456 565.42 838.593 564.949 837.729C564.635 837.14 564.36 836.552 564.086 835.963C563.929 835.649 563.811 835.335 563.654 834.982C563.183 834.001 562.712 833.019 562.634 831.999C562.477 829.055 561.417 826.425 560.239 823.835C559.651 822.579 559.023 821.362 558.395 820.106C557.256 817.83 556.079 815.514 555.215 813.159C554.077 809.98 553.175 806.722 552.272 803.426C551.84 801.816 551.408 800.246 550.937 798.637C550.702 797.852 550.506 797.028 550.309 796.243C549.799 794.241 549.289 792.279 548.347 790.513C545.639 785.685 545.796 780.622 546.345 775.441C546.502 773.832 546.384 772.419 545.521 771.084C544.108 768.926 543.833 766.61 544.5 764.137L544.736 763.313C545.089 761.979 545.442 760.683 545.678 759.349C545.953 757.74 546.149 756.131 546.149 754.521V748.673C546.149 745.573 546.11 742.511 546.227 739.411C546.345 736.702 546.62 734.033 546.895 731.365C547.091 729.598 547.248 727.793 547.405 726.027C547.837 720.061 552.664 716.411 558.552 717.706L559.062 717.824C559.533 717.941 560.004 718.059 560.475 718.059C562.084 718.138 562.987 717.353 563.065 715.783C563.065 715.272 563.026 714.801 562.908 714.291L562.791 713.506C562.634 711.976 562.437 710.445 562.241 708.953C561.574 703.851 560.946 698.749 561.221 693.568C561.456 689.172 561.652 684.737 561.849 680.341V680.145C561.927 678.457 561.613 677.005 560.436 675.592C559.69 674.689 559.258 673.198 559.297 671.981C559.415 668.488 559.69 664.955 560.161 661.501C562.437 645.723 566.637 630.377 571.582 615.227C576.763 599.488 583.082 584.22 590.814 569.463C597.173 557.295 603.884 545.364 612.597 534.649C615.345 531.273 618.328 527.977 621.585 525.111L622.488 524.326C623.823 523.149 625.118 522.011 626.295 520.637C627.865 518.792 629.514 517.026 631.201 515.26L633.203 513.14C633.478 512.866 633.753 512.591 634.027 512.277C634.42 511.845 634.852 511.453 635.244 510.982C636.068 510.04 636.853 509.059 637.638 508.117C639.208 506.193 640.778 504.27 642.505 502.504C645.37 499.521 648.432 496.656 651.65 493.987C652.514 493.28 653.338 492.574 654.201 491.867C659.068 487.825 663.974 483.743 669.155 480.132C681.126 471.772 693.961 464.864 707.305 458.898C718.648 453.835 730.305 449.714 742.276 446.417C755.464 442.806 768.965 441.433 782.506 440.491H782.82C783.919 440.412 785.018 440.373 785.646 439.195H785.607H787.569L788.59 439.431C789.296 439.627 790.042 439.784 790.748 439.823C796.989 439.863 803.19 439.863 809.431 439.823C810.137 439.823 810.883 439.627 811.59 439.431L812.61 439.195H814.572C815.161 440.334 816.221 440.412 817.281 440.491H817.712L819.439 440.608C821.716 440.765 823.992 440.962 826.229 441.315C827.721 441.55 829.212 441.825 830.743 442.061C839.182 443.434 847.62 444.808 856.019 446.496C875.055 450.264 893.188 456.936 910.379 465.806C919.995 470.791 929.219 476.56 938.285 482.487C946.606 487.943 954.259 494.34 961.442 501.326C968.546 508.234 974.787 515.809 980.713 523.698C982.244 525.7 983.892 527.898 984.363 530.253C984.913 532.804 986.365 533.746 988.328 534.413C990.329 535.041 991.781 536.297 992.998 537.867C995.392 540.929 997.787 544.029 1000.18 547.091L1006.3 554.98C1007.72 556.785 1008.93 558.591 1007.28 560.71C1007.87 561.495 1008.46 562.28 1009.01 563.026C1010.23 564.596 1011.37 566.127 1012.47 567.736C1013.96 569.934 1015.33 572.171 1016.55 574.486L1018.9 578.961C1021.61 584.063 1024.32 589.166 1026.67 594.386C1028.99 599.488 1030.91 604.747 1032.84 610.007C1033.31 611.341 1033.82 612.637 1034.29 613.971C1035.5 617.268 1036.68 620.604 1037.51 623.979C1039 630.181 1040.41 636.382 1041.82 642.623C1042.49 645.488 1043.12 648.353 1043.79 651.218C1044.02 652.278 1044.38 653.338 1044.77 654.358C1045.71 656.949 1046.97 657.341 1049.16 655.693C1049.56 655.418 1049.91 655.025 1050.22 654.672L1050.81 654.083C1051.75 653.22 1052.7 652.317 1053.6 651.414C1055.64 649.452 1057.72 647.45 1059.88 645.606C1062.47 643.408 1065.53 643.918 1067.45 646.744C1068.24 647.882 1068.63 649.374 1069.02 650.747C1069.06 650.904 1069.1 651.1 1069.18 651.257C1069.46 652.199 1069.57 653.22 1069.69 654.201C1069.69 654.515 1069.77 654.829 1069.81 655.143L1070.28 658.244C1070.67 660.677 1071.03 663.111 1071.14 665.544C1071.26 668.174 1071.61 670.45 1073.34 672.57C1074.99 674.532 1075.97 676.848 1075.85 679.517C1075.85 679.948 1075.81 680.38 1075.77 680.812C1075.62 683.442 1075.5 686.071 1076.87 688.505C1077.07 688.858 1077.15 689.407 1077.03 689.8C1076.44 691.88 1077.15 693.646 1078.05 695.452C1078.29 695.923 1078.33 696.512 1078.4 697.061C1078.4 697.493 1078.48 697.924 1078.6 698.317C1078.95 699.651 1079.39 700.947 1079.78 702.242L1080.48 704.518V707.815C1079.82 709.542 1079.11 711.308 1078.44 713.035C1076.79 717.196 1075.19 721.395 1073.54 725.556C1070.55 733.131 1068.87 741.059 1067.96 749.144C1067.1 756.641 1065.96 764.137 1064.75 771.595C1064 776.147 1063.05 780.665 1061.92 785.136C1061.06 788.629 1059.92 792.083 1058.7 795.497C1057.96 797.538 1057.17 799.54 1056.35 801.542C1055.64 803.269 1054.93 805.035 1054.27 806.801C1052.34 811.982 1050.18 816.966 1046.18 820.97C1044.26 822.932 1043.51 825.405 1043.94 828.231C1044.18 829.801 1044.22 831.41 1044.3 832.98V833.765C1044.34 834.629 1044.34 835.453 1044.3 836.316C1044.3 837.886 1044.22 839.456 1044.49 840.987C1046.26 851.623 1043.83 861.71 1040.69 871.68C1039.7 874.78 1038.57 877.881 1037.43 880.942C1036.09 884.553 1034.76 888.164 1033.66 891.853C1032.4 896.21 1030.36 900.096 1028.32 904.021C1028.01 904.649 1027.65 905.277 1027.34 905.905C1025.34 909.79 1023.53 913.754 1022.63 918.111C1021.69 922.703 1020.47 927.295 1018.78 931.691C1018.67 932.044 1018.51 932.398 1018.39 932.712C1016.67 937.186 1014.98 941.621 1014.39 946.449C1014.31 947.116 1014.11 947.744 1013.96 948.411C1013.92 948.607 1013.84 948.804 1013.8 949.039C1013.13 951.512 1011.99 953.71 1010.07 955.476C1009.36 956.143 1008.78 956.967 1008.38 957.831C1006.81 961.206 1005.28 964.621 1003.87 968.075C1003.67 968.546 1003.48 969.056 1003.24 969.566C1002.38 971.529 1001.55 973.57 1001.52 975.532C1001.48 978.829 1000.49 981.498 998.846 984.167C998.258 985.07 997.786 986.09 997.473 987.111C995.942 992.252 994.49 997.433 993.037 1002.61C992.88 1003.2 992.802 1003.79 992.723 1004.38C992.684 1004.77 992.645 1005.13 992.566 1005.52C992.449 1006.22 992.37 1006.93 992.252 1007.68C992.056 1009.36 991.821 1011.01 991.232 1012.54C989.741 1016.31 988.995 1020.2 989.073 1024.12C989.27 1031.62 987.543 1038.61 985.188 1045.67C983.461 1050.81 982.558 1056.23 982.911 1061.84C983.186 1065.57 982.833 1069.49 979.34 1071.93C977.102 1073.54 976.71 1075.42 977.848 1077.62C979.379 1080.52 978.947 1083.39 978.123 1086.25C977.77 1087.51 977.299 1088.69 976.828 1089.9C976.592 1090.53 976.357 1091.16 976.121 1091.83C975.925 1092.42 975.65 1093 975.415 1093.63C974.826 1094.97 974.276 1096.34 974.119 1097.71C973.688 1101.99 972.118 1105.84 970.548 1109.69C970.155 1110.67 969.724 1111.69 969.37 1112.67C968.782 1114.2 968.311 1115.77 967.918 1117.38L966.034 1125.03C965.328 1128.01 964.582 1131 963.836 1133.98C963.365 1135.79 962.894 1137.59 962.384 1139.44C961.913 1141.12 961.442 1142.77 961.01 1144.46C960.736 1145.48 960.539 1146.5 960.343 1147.52C960.029 1149.09 959.676 1150.62 959.205 1152.15C958.577 1154.15 957.713 1156.08 956.85 1158C956.654 1158.47 956.457 1158.94 956.222 1159.37C955.751 1160.51 955.201 1161.61 954.691 1162.71C953.749 1164.67 952.807 1166.64 952.101 1168.68C951.316 1170.91 950.57 1173.15 949.824 1175.35C946.684 1184.65 943.505 1193.91 939.463 1202.9C938.128 1205.88 936.833 1208.98 936.126 1212.16C935.616 1214.52 935.302 1216.95 935.027 1219.35C934.949 1220.09 934.87 1220.8 934.753 1221.54L934.713 1221.39ZM534.021 2084.12V1889.6H683.52L668.017 1931.99H594.582V1971.36H653.691L638.188 2013.82H594.543V2084.08H533.982L534.021 2084.12ZM762.646 1889.6H702.085V2084.12H762.646V1889.6ZM804.289 2084.12V1889.6H953.788L938.285 1931.99H864.85V1971.36H923.959L908.456 2013.82H864.811V2084.08H804.25L804.289 2084.12ZM1023.89 1939.56L1048.1 2020.61H1000.46L1023.85 1939.56H1023.93H1023.89ZM993.351 1889.52L922.468 2084.04H982.126L989.662 2057.9H1058.11L1066 2084.04H1127.19L1056.31 1889.52H993.312H993.351Z" fill="white"/>
</svg>
